<?xml version="1.0" encoding="utf-8"?>
<!-- Generator: Adobe Illustrator 28.1.0, SVG Export Plug-In . SVG Version: 6.00 Build 0)  -->
<svg version="1.1" id="Layer_1" xmlns="http://www.w3.org/2000/svg" xmlns:xlink="http://www.w3.org/1999/xlink" x="0px" y="0px"
	 viewBox="0 0 208.4 24.5" style="enable-background:new 0 0 208.4 24.5;" xml:space="preserve">
<style type="text/css">
	.st0{fill:#FFFFFF;}
</style>
<g>
	<path class="st0" d="M24,7.7C24,2.2,20.1,1,14.8,1H1.3v22.5h4.4v-8.8h7l6.5,8.8h5.4l-6.9-9.2C21,14.2,24,11.9,24,7.7z M5.7,11V4.7
		h8.5c3.6,0,5.4,0.5,5.4,3.2S17.8,11,14.2,11H5.7z"/>
	<polygon class="st0" points="82.4,19 73.9,1 69.2,1 80.1,23.5 84.6,23.5 95.6,1 90.9,1 	"/>
	<polygon class="st0" points="162.4,17.3 147.4,1 142.8,1 142.8,23.5 147,23.5 147,6.7 162.6,23.5 166.6,23.5 166.6,1 162.4,1 	"/>
	<polygon class="st0" points="207.3,1 179,1 180.5,4.8 190.5,4.8 190.5,23.5 194.9,23.5 194.9,4.8 205,4.8 	"/>
	<polygon class="st0" points="56.4,4.8 58.7,1 40.1,1 36.2,1 36.2,4.8 36.2,10 36.2,13.8 36.2,19.7 36.2,23.5 40.3,23.5 56.4,23.5 
		58.7,19.7 40.3,19.7 40.2,13.8 55.6,13.8 57.9,10 40.2,10 40.1,4.8 	"/>
	<polygon class="st0" points="128.1,4.8 130.4,1 111.9,1 108,1 108,4.8 108,10 108,13.8 108,19.7 108,23.5 112.1,23.5 128.1,23.5 
		130.4,19.7 112.1,19.7 112,13.8 127.3,13.8 129.6,10 112,10 111.9,4.8 	"/>
	<polygon class="st0" points="203.7,22 204.3,22 204.3,23.5 204.5,23.5 204.5,22 205.1,22 205.1,21.8 203.7,21.8 	"/>
	<path class="st0" d="M206.4,22.7l-0.6-0.9h-0.2v1.7h0.2v-0.9c0-0.1,0-0.3,0-0.4l0,0c0.1,0.1,0.1,0.2,0.2,0.3l0.4,0.5l0.4-0.5
		c0.1-0.1,0.1-0.2,0.2-0.3l0,0c0,0.1,0,0.2,0,0.4v0.9h0.2v-1.7H207L206.4,22.7L206.4,22.7z"/>
</g>
</svg>
