<?xml version="1.0" encoding="utf-8"?>
<!-- Generator: Adobe Illustrator 28.1.0, SVG Export Plug-In . SVG Version: 6.00 Build 0)  -->
<svg version="1.1" id="Layer_1" xmlns="http://www.w3.org/2000/svg" xmlns:xlink="http://www.w3.org/1999/xlink" x="0px" y="0px"
	 viewBox="0 0 208.1 24.5" style="enable-background:new 0 0 208.1 24.5;" xml:space="preserve">
<style type="text/css">
	.st0{fill:#231F20;}
</style>
<g>
	<path class="st0" d="M23.6,7.7c0-5.5-3.8-6.7-9.2-6.7H1v22.5h4.4v-8.8h7l6.5,8.8h5.4l-6.9-9.2C20.7,14.1,23.6,11.9,23.6,7.7z
		 M5.4,11V4.7h8.5c3.6,0,5.4,0.5,5.4,3.2S17.4,11,13.8,11H5.4z"/>
	<polygon class="st0" points="82,18.9 73.6,1 68.9,1 79.7,23.5 84.3,23.5 95.3,1 90.6,1 	"/>
	<polygon class="st0" points="162.1,17.2 147,1 142.4,1 142.4,23.5 146.6,23.5 146.6,6.7 162.2,23.5 166.3,23.5 166.3,1 162.1,1 	
		"/>
	<polygon class="st0" points="206.9,1 178.6,1 180.1,4.8 190.2,4.8 190.2,23.5 194.6,23.5 194.6,4.8 204.6,4.8 	"/>
	<polygon class="st0" points="56,4.8 58.3,1 39.8,1 35.8,1 35.8,4.8 35.8,10 35.8,13.7 35.8,19.7 35.8,23.5 40,23.5 56,23.5 
		58.3,19.7 40,19.7 39.9,13.7 55.2,13.7 57.5,10 39.8,10 39.8,4.8 	"/>
	<polygon class="st0" points="127.8,4.8 130.1,1 111.5,1 107.6,1 107.6,4.8 107.6,10 107.6,13.7 107.6,19.7 107.6,23.5 111.8,23.5 
		127.8,23.5 130.1,19.7 111.7,19.7 111.7,13.7 127,13.7 129.3,10 111.6,10 111.6,4.8 	"/>
</g>
<polygon class="st0" points="203.4,21.8 203.9,21.8 203.9,23.3 204.1,23.3 204.1,21.8 204.7,21.8 204.7,21.6 203.4,21.6 "/>
<path class="st0" d="M206,22.4l-0.6-0.9h-0.2v1.7h0.2v-0.9c0-0.1,0-0.3,0-0.4l0,0c0.1,0.1,0.1,0.2,0.2,0.3l0.4,0.5l0.4-0.5
	c0.1-0.1,0.1-0.2,0.2-0.3l0,0c0,0.1,0,0.2,0,0.4v0.9h0.2v-1.7h-0.2L206,22.4L206,22.4z"/>
</svg>
